PathFileType	3	(X/Y/Z)	D:\VICON_DB\Goncalves\Pilot01\09-03-2026\static_01.trc
DataRate	CameraRate	NumFrames	NumMarkers	Units	OrigDataRate	OrigDataStartFrame	OrigNumFrames
200.0	200.0	5	34	mm	200.0	81	321	
Frame#	Time	LASI			RASI			LPSI			RPSI			LTHI			LTHAP			LTHAD			LKNE			LKNM			LTIB			LTIAP			LTIAD			LANK			LMED			LHEE			LTOE			LFMH			LSMH			LVMH			RTHI			RTHAP			RTHAD			RKNE			RKNM			RTIB			RTIAP			RTIAD			RANK			RMED			RHEE			RTOE			RFMH			RSMH			RVMH			
		X1	Y1	Z1	X2	Y2	Z2	X3	Y3	Z3	X4	Y4	Z4	X5	Y5	Z5	X6	Y6	Z6	X7	Y7	Z7	X8	Y8	Z8	X9	Y9	Z9	X10	Y10	Z10	X11	Y11	Z11	X12	Y12	Z12	X13	Y13	Z13	X14	Y14	Z14	X15	Y15	Z15	X16	Y16	Z16	X17	Y17	Z17	X18	Y18	Z18	X19	Y19	Z19	X20	Y20	Z20	X21	Y21	Z21	X22	Y22	Z22	X23	Y23	Z23	X24	Y24	Z24	X25	Y25	Z25	X26	Y26	Z26	X27	Y27	Z27	X28	Y28	Z28	X29	Y29	Z29	X30	Y30	Z30	X31	Y31	Z31	X32	Y32	Z32	X33	Y33	Z33	X34	Y34	Z34	
81	0.4	120.97724	904.05365	-1066.1235	117.91022	905.58612	-1331.5916	302.97903	957.70007	-1182.3701	312.2095	954.25641	-1231.074	126.76819	694.40253	-1034.0314	144.45834	768.07904	-1020.5961	170.37012	630.21545	-1009.6363	222.35011	474.81906	-1025.6821	199.59279	464.59128	-1153.7731	258.98679	281.59378	-1005.1719	202.04553	357.27487	-1060.9904	217.22034	254.90948	-1033.1676	272.70755	70.413094	-1027.4655	239.55072	80.922501	-1108.0962	315.07556	61.600159	-1080.5621	191.32025	71.881248	-1047.6024	134.16212	44.887871	-1073.2261	133.82492	39.297169	-1032.9414	149.17104	25.674704	-993.10577	162.0619	626.28387	-1383.262	125.61662	752.77423	-1359.8176	109.04021	661.2594	-1337.5969	209.67793	490.90005	-1366.0929	207.36926	434.53214	-1245.6981	228.53168	296.31375	-1384.0443	189.36542	346.74435	-1329.2802	194.31706	265.43164	-1331.8906	269.06705	61.932278	-1356.3433	233.81642	90.172188	-1276.4607	305.12796	57.774555	-1314.3076	176.73312	69.05455	-1340.5946	126.32334	49.386639	-1315.3641	123.98576	40.552975	-1351.4592	139.72623	20.482935	-1389.1208
82	0.405	121.01232	904.06091	-1066.101	117.9173	905.60968	-1331.5635	302.785	957.61707	-1182.7401	312.27292	954.25696	-1231.0477	126.79316	694.4079	-1033.9852	144.50002	768.08301	-1020.5483	170.40833	630.21222	-1009.6096	222.36629	474.80432	-1025.6625	199.62015	464.58688	-1153.7415	258.9996	281.58331	-1005.1514	202.06625	357.27841	-1060.9685	217.24542	254.91467	-1033.1442	273.16904	70.202362	-1027.3628	239.56616	80.908287	-1108.0935	315.0769	61.610756	-1080.5702	191.29333	71.860535	-1047.6207	134.16512	44.882927	-1073.2142	133.81427	39.291039	-1032.9615	149.17815	25.651894	-993.11115	162.09612	626.23987	-1383.25	125.62655	752.7923	-1359.7806	109.03624	661.25958	-1337.5927	209.68138	490.88763	-1366.0457	207.27229	434.56351	-1245.6807	228.53177	296.32635	-1384.0128	189.35463	346.75436	-1329.245	194.37857	265.39966	-1331.906	269.06381	61.935215	-1356.3322	233.80841	90.172508	-1276.455	305.12018	57.788292	-1314.3162	176.7525	69.090698	-1340.5582	126.31496	49.402107	-1315.3782	123.98051	40.55402	-1351.4674	139.98784	20.332932	-1388.8289
83	0.41	121.0555	904.06299	-1066.0603	117.94684	905.60297	-1331.5194	302.68701	957.51508	-1182.6802	312.27859	954.22028	-1231.0258	126.82931	694.42017	-1033.9309	144.54193	768.08453	-1020.5147	170.4503	630.20935	-1009.5685	222.4102	474.80255	-1025.6543	199.64049	464.6008	-1153.7213	259.01389	281.59131	-1005.1409	202.1263	357.25897	-1060.8866	217.26625	254.91486	-1033.1261	272.79529	70.267311	-1027.4764	239.55997	80.911659	-1108.0859	315.07172	61.590191	-1080.5647	191.31868	71.873192	-1047.6534	134.17914	44.885925	-1073.2065	133.82816	39.299335	-1032.9412	149.18784	25.638311	-993.12451	162.10356	626.26068	-1383.2231	125.62083	752.78046	-1359.7656	109.03625	661.26526	-1337.585	209.68384	490.90274	-1366.0247	207.31509	434.55762	-1245.6279	228.49174	296.33328	-1384.0365	189.34534	346.74554	-1329.2397	194.375	265.39178	-1331.8745	269.0705	61.942417	-1356.327	233.80023	90.168877	-1276.446	305.12518	57.782547	-1314.3094	176.75844	69.086945	-1340.5713	126.30509	49.3974	-1315.3844	123.97713	40.552696	-1351.4717	139.96611	20.335022	-1388.8232
84	0.415	121.09082	904.08649	-1066.0222	117.97195	905.58813	-1331.4537	302.47302	957.526	-1183.13	312.2941	954.2243	-1230.9918	126.85587	694.42389	-1033.8988	144.57169	768.10687	-1020.4731	170.47601	630.21472	-1009.5372	222.42029	474.81778	-1025.6134	199.65663	464.61258	-1153.6918	259.07382	281.59818	-1005.1021	202.13144	357.28519	-1060.9098	217.28577	254.91502	-1033.1049	272.81662	70.281792	-1027.4574	239.54105	80.939018	-1108.1025	315.07339	61.59639	-1080.5624	191.42952	71.907555	-1047.5809	134.17081	44.881783	-1073.2158	133.82843	39.291729	-1032.9427	149.18837	25.657295	-993.11469	162.14999	626.22601	-1383.1603	125.64226	752.79578	-1359.7449	109.06095	661.25116	-1337.5197	209.65012	490.93127	-1366.0107	207.38768	434.49942	-1245.6119	228.49586	296.34918	-1384.0205	189.33362	346.74911	-1329.2311	194.34483	265.4071	-1331.8932	269.0643	61.929836	-1356.3405	233.7946	90.170662	-1276.4443	305.14545	57.760567	-1314.2885	176.74651	69.080231	-1340.5778	126.31576	49.401833	-1315.3821	123.98481	40.552555	-1351.4661	139.96329	20.343765	-1388.8256
85	0.42	121.1191	904.09454	-1065.986	117.98136	905.59125	-1331.4126	302.24002	957.37506	-1183.3401	312.32544	954.20886	-1230.9554	126.89087	694.42981	-1033.8413	144.58907	768.11536	-1020.4406	170.50456	630.22125	-1009.4987	222.45554	474.82391	-1025.5953	199.67648	464.62158	-1153.6805	259.08389	281.60397	-1005.1085	202.14902	357.26932	-1060.9034	217.29251	254.91933	-1033.0939	272.6983	70.405312	-1027.4464	239.55908	80.937675	-1108.0934	315.08203	61.595463	-1080.5684	191.30872	71.911041	-1047.6547	134.16316	44.895679	-1073.2334	133.82982	39.311539	-1032.9465	149.19508	25.661568	-993.10858	162.11731	626.24249	-1383.1771	125.81882	752.78748	-1359.5168	109.21426	661.2049	-1337.2672	209.65863	490.9173	-1365.9738	207.24069	434.58344	-1245.606	228.49008	296.34448	-1383.9946	189.33644	346.74423	-1329.196	194.3017	265.4335	-1331.8431	269.06778	61.938911	-1356.3308	233.80914	90.171349	-1276.4465	305.13623	57.771049	-1314.2932	176.75316	69.076836	-1340.5996	126.30543	49.421425	-1315.3936	123.97164	40.565384	-1351.4664	139.96411	20.358376	-1388.8297
